# xmcd CD Database Entry
#
# Track frame offsets:
# 150
# 12470
# 26490
# 44255
# 59240
# 77672
#
# Disc length: 1370 seconds
#
# Revision: 2
# Processed by: cddbd v1.4PL0 Copyright (c) Steve Scherf et al.
# Submitted via: tcd 2.0b
#
DISCID=49055806
DTITLE=Year of Our Lord, The - The Frozen Divide EP
DYEAR=1900
DGENRE=
TTITLE0=Mechanism 014028000
TTITLE1=Manchild in the Promised Land
TTITLE2=Porcelain
TTITLE3=This Divine Poison
TTITLE4=Seasons of Suffocation
TTITLE5=The Frozen Divide
EXTD=
EXTT0=
EXTT1=
EXTT2=
EXTT3=
EXTT4=
EXTT5=
PLAYORDER=
